<svg width="50" height="28" viewBox="0 0 50 28" fill="none" xmlns="http://www.w3.org/2000/svg">
<g id="mvola_728x534 2" clip-path="url(#clip0_371_491)">
<g id="Group">
<path id="Vector" d="M-1.11426 18.0931C0.923396 15.3791 2.89181 12.7517 4.86641 10.1292C5.49699 9.29215 6.14736 8.47115 6.78413 7.63902C7.0005 7.35588 7.26139 7.12219 7.56308 6.94414C8.17512 6.58434 8.82425 6.41989 9.49317 6.7797C10.1448 7.12961 10.355 7.72558 10.3537 8.43158C10.3488 9.9759 10.3488 11.5202 10.3562 13.0645C10.3574 13.2562 10.2795 13.4701 10.4786 13.705C12.1775 11.472 13.7861 9.19694 15.6791 6.9392C15.7866 7.5636 15.6655 8.05941 16.1675 8.29928C16.2009 8.24117 16.2441 8.19666 16.2355 8.17564C16.0772 7.79852 15.8064 7.33981 16.1563 7.03812C16.4828 6.75621 16.9402 7.06531 17.3223 7.18649C17.6116 7.27798 17.901 7.39916 18.1297 7.61677C18.2187 7.70208 18.3918 7.8418 18.3745 7.87518C18.1198 8.34627 18.6589 8.60345 18.6552 9.03002C18.6255 11.6859 18.6416 14.3418 18.6391 16.9989C18.6391 17.7556 18.2806 18.0684 17.4101 18.087C16.4877 18.1067 16.1329 17.8372 16.1291 17.031C16.1168 14.8907 16.1291 12.7505 16.1279 10.6102C16.1279 10.4148 16.2219 10.1564 15.9832 10.0587C15.7125 9.9487 15.6568 10.243 15.5468 10.3913C13.864 12.6466 12.1837 14.9019 10.512 17.1658C10.0199 17.8322 9.41032 18.1846 8.56336 18.0091C8.11206 17.9163 7.86477 17.6826 7.83139 17.1806C7.69291 15.0428 7.77699 12.9026 7.73989 10.7647C7.73618 10.5607 7.87838 10.2504 7.59152 10.1737C7.37514 10.1156 7.28736 10.4025 7.16989 10.562C5.46237 12.9013 3.7499 15.2382 2.05845 17.5899C1.79385 17.9584 1.52802 18.1426 1.05322 18.1092C0.363289 18.0573 -0.329118 18.0931 -1.11426 18.0931ZM16.4828 8.50329C16.9081 9.15614 17.8688 9.11904 18.3523 8.38213C17.697 8.70855 17.1047 8.83095 16.4828 8.50329Z" fill="#4F4F4F"/>
<path id="Vector_2" d="M24.7141 14.5087C25.3051 13.9226 25.7799 13.2352 26.2683 12.565C27.6222 10.7054 28.9625 8.83466 30.2929 6.95774C30.4784 6.69685 30.6577 6.57074 30.9915 6.58434C31.7074 6.61278 32.4258 6.59299 33.1948 6.59299C33.0848 6.98 32.8165 7.21492 32.6149 7.48076C30.2731 10.5756 27.9251 13.6667 25.566 16.7479C24.9886 17.5021 24.285 18.0832 23.2576 18.0882C22.4081 18.0919 22.0867 17.8026 22.0792 16.9556C22.0669 15.3297 22.0755 13.7038 22.0755 12.0766C22.0755 10.4297 22.0904 8.78273 22.0656 7.13703C22.0595 6.70056 22.1893 6.5324 22.6196 6.59794C22.7407 6.61648 22.8656 6.60041 22.9893 6.60165C24.1169 6.60412 24.5682 7.06407 24.5682 8.21767C24.5694 10.0909 24.5694 11.9641 24.5694 13.8373C24.5694 14.0388 24.5694 14.2404 24.5694 14.4432C24.6177 14.4642 24.6659 14.4864 24.7141 14.5087Z" fill="#4F4F4F"/>
<path id="Vector_3" d="M46.312 16.1173C45.8261 16.6959 45.4094 17.1373 44.8839 17.4638C44.4771 17.7172 44.0555 17.9101 43.5782 17.9719C42.1687 18.1537 41.3205 17.2993 41.5096 15.8898C41.846 13.3872 44.011 11.0355 46.4789 10.5063C47.1911 10.3542 47.9033 10.4123 48.6204 10.5199C49.0359 10.5817 49.0074 10.7511 48.8949 11.0578C48.2421 12.8246 47.5101 14.5618 47.0007 16.3794C46.8956 16.754 46.7744 17.1336 46.7435 17.5169C46.7114 17.9163 46.4616 17.8607 46.2304 17.8335C45.8829 17.7927 46.1005 17.5355 46.1228 17.4057C46.1859 17.0285 46.3874 16.6774 46.312 16.1173ZM47.2331 11.0231C44.7553 11.0194 42.2243 13.6518 42.2503 16.2051C42.2589 17.099 42.8351 17.5639 43.7056 17.3661C44.5624 17.172 45.2054 16.6341 45.7902 16.0184C46.8869 14.8635 47.3568 13.386 47.8798 11.9369C48.2087 11.0269 48.2037 11.0244 47.2331 11.0231Z" fill="#4F4F4F"/>
<path id="Vector_4" d="M32.6726 18.0882C31.0702 18.0943 30.1441 16.9482 30.4149 15.3705C30.724 13.5776 31.5833 12.1112 33.1276 11.0837C33.9017 10.5681 34.7412 10.3963 35.6487 10.536C36.398 10.651 36.9668 11.2853 37.1263 12.152C37.5578 14.4988 35.3879 17.6282 33.0386 18.0436C32.8779 18.0733 32.7134 18.0832 32.6726 18.0882ZM36.4463 13.2821C36.4586 11.3446 35.2642 10.5929 33.8275 11.3397C32.162 12.2064 31.3002 13.6642 31.137 15.4867C30.9861 17.1695 32.3252 18.0214 33.8015 17.1955C35.4398 16.278 36.2645 14.7955 36.4463 13.2821Z" fill="#4F4F4F"/>
<path id="Vector_5" d="M17.3208 2.00578C19.5699 2.0132 21.1476 3.09756 22.222 5.03382C22.5287 5.58651 22.0811 5.64957 21.8054 5.83628C21.3541 6.14291 21.448 5.63226 21.3825 5.49873C20.2611 3.21131 17.6398 2.28027 15.3351 3.42522C14.8875 3.64778 14.8751 3.37329 14.7317 3.14702C14.571 2.89108 14.5005 2.71179 14.8739 2.54364C15.6553 2.19001 16.4503 1.96003 17.3208 2.00578Z" fill="#4F4F4F"/>
<path id="Vector_6" d="M42.4688 7.19886C41.5056 9.7892 40.5746 12.3016 39.6386 14.8116C39.2961 15.7315 38.9276 16.6428 38.6061 17.5714C38.506 17.8594 38.37 17.9571 38.0819 17.9509C37.8025 17.9448 37.7839 17.8582 37.8754 17.6146C39.1428 14.2404 40.4052 10.8649 41.6577 7.48571C41.8271 7.02946 42.1411 7.26315 42.4688 7.19886Z" fill="#4F4F4F"/>
<path id="Vector_7" d="M19.7208 7.29284C19.5823 6.41867 19.2583 5.76089 18.5474 5.35533C17.7758 4.91392 16.9771 4.86447 16.2068 5.31453C15.8903 5.49876 15.7951 5.37264 15.7382 5.1303C15.6813 4.88548 15.2362 4.66911 15.6937 4.36618C17.3221 3.29048 20.1906 4.44902 20.6011 6.35438C20.6419 6.54108 20.6209 6.65236 20.4441 6.75746C20.2178 6.89347 20.0175 7.07028 19.7208 7.29284Z" fill="#4F4F4F"/>
<path id="Vector_8" d="M22.2643 21.0841C22.1827 21.9768 22.1171 22.6865 22.0516 23.3962C21.9848 23.39 21.9193 23.3851 21.8525 23.3789C21.9156 22.4837 21.9787 21.5885 22.0454 20.6946C22.0516 20.608 22.1035 20.5462 22.2049 20.5425C22.3459 20.5363 22.3607 20.6439 22.3966 20.7391C22.6278 21.3511 22.8639 21.9607 23.0915 22.574C23.1347 22.689 23.1496 22.8151 23.2979 22.9029C23.5724 22.1956 23.8432 21.4933 24.1189 20.7923C24.161 20.6847 24.1808 20.5413 24.3464 20.5413C24.4775 20.54 24.5331 20.6365 24.5393 20.7391C24.595 21.6244 24.6419 22.5109 24.6073 23.4036C24.3464 22.7236 24.4243 22.0003 24.1993 21.2658C23.91 21.9793 23.6194 22.6927 23.2744 23.5446C22.8194 22.7446 22.6698 21.9496 22.2643 21.0841Z" fill="#4F4F4F"/>
<path id="Vector_9" d="M37.1728 21.1459C36.9193 21.8123 36.6733 22.4813 36.4074 23.144C36.3691 23.2392 36.3654 23.4111 36.196 23.4061C36.0217 23.4012 36.0464 23.2293 36.0068 23.1279C35.7707 22.527 35.5481 21.9224 35.26 21.1546C35.0152 22.0015 35.2007 22.7384 34.9534 23.5298C34.7444 23.1638 34.8322 22.8819 34.8421 22.621C34.8631 22.0485 34.9113 21.4773 34.9645 20.906C34.9769 20.775 34.988 20.5858 35.1537 20.5574C35.3552 20.5227 35.3528 20.7305 35.3997 20.8516C35.6619 21.5317 35.9129 22.2167 36.2084 23.008C36.5113 22.2352 36.7709 21.5638 37.038 20.8961C37.0949 20.7527 37.106 20.5289 37.3212 20.5524C37.5647 20.5784 37.4634 20.8083 37.4782 20.9518C37.5437 21.6219 37.6031 22.2945 37.6488 22.9659C37.6587 23.1094 37.7762 23.3665 37.5759 23.3839C37.2903 23.4073 37.4188 23.1155 37.404 22.9635C37.3484 22.3601 37.315 21.7542 37.2742 21.1496C37.2408 21.1484 37.2062 21.1471 37.1728 21.1459Z" fill="#4F4F4F"/>
<path id="Vector_10" d="M27.8542 20.4164C27.8542 20.77 27.8542 21.1236 27.8542 21.5539C28.3723 21.2683 28.8508 21.1211 29.2316 21.5762C29.5506 21.9582 29.626 22.4194 29.4134 22.8979C29.1834 23.4172 28.6999 23.5235 28.1485 23.4259C27.5476 23.3195 27.6193 22.9709 27.6242 22.569C27.6341 21.8469 27.6267 21.1249 27.6267 20.4028C27.7034 20.4077 27.7788 20.4127 27.8542 20.4164ZM27.8777 22.4206C27.8789 23.008 28.0669 23.2528 28.5256 23.2627C28.9794 23.2713 29.2588 22.9486 29.265 22.4058C29.2724 21.8506 29.0103 21.5193 28.5565 21.5353C27.9828 21.5564 27.8629 21.9397 27.8777 22.4206Z" fill="#4F4F4F"/>
<path id="Vector_11" d="M33.2931 23.2849C32.895 23.5941 32.4931 23.578 32.142 23.3665C31.771 23.144 31.6115 22.7446 31.6598 22.3106C31.7092 21.8667 31.8823 21.476 32.3546 21.319C32.8801 21.1447 33.4625 21.6009 33.4477 22.1561C33.4427 22.3601 33.3178 22.3935 33.1695 22.3984C32.8628 22.4095 32.5549 22.4207 32.2495 22.4058C31.8625 22.3861 31.8353 22.5431 31.9899 22.8423C32.1778 23.207 32.2063 23.2231 33.2931 23.2849ZM31.9108 22.1301C32.3509 22.1301 32.7639 22.1301 33.2276 22.1301C33.0977 21.7901 32.9902 21.5329 32.6007 21.5267C32.2026 21.5218 32.0245 21.7468 31.9108 22.1301Z" fill="#4F4F4F"/>
<path id="Vector_12" d="M39.0822 23.5149C38.537 23.5161 38.0857 23.008 38.0869 22.3947C38.0882 21.7703 38.5234 21.293 39.0934 21.2893C39.6597 21.2856 40.0986 21.769 40.0924 22.3885C40.085 22.9795 39.6077 23.5137 39.0822 23.5149ZM39.8303 22.3972C39.8352 21.8667 39.5509 21.5292 39.0959 21.5267C38.647 21.5242 38.3367 21.8741 38.349 22.3811C38.3614 22.8608 38.5345 23.2293 39.0773 23.2577C39.5138 23.2812 39.8254 22.9078 39.8303 22.3972Z" fill="#4F4F4F"/>
<path id="Vector_13" d="M44.3443 23.2887C43.8201 23.6163 43.4282 23.5372 43.0968 23.2887C42.716 23.003 42.6603 22.5703 42.7531 22.119C42.8384 21.7023 43.0758 21.4018 43.4887 21.3042C43.8325 21.2226 44.1379 21.3363 44.3394 21.6516C44.4643 21.847 44.5595 22.0708 44.4532 22.2847C44.3555 22.4813 44.1243 22.3922 43.9487 22.4083C43.8263 22.4194 43.6915 22.3799 43.5827 22.4182C43.3873 22.4862 43.03 22.208 43.0053 22.621C42.9843 22.9672 43.218 23.1897 43.5654 23.2454C43.7744 23.2775 43.9907 23.2701 44.3443 23.2887ZM42.9929 22.1672C43.286 22.1672 43.5468 22.182 43.804 22.161C43.9437 22.1499 44.1663 22.2674 44.2046 22.03C44.2417 21.8025 44.0909 21.6256 43.8844 21.57C43.4158 21.4439 43.1042 21.6108 42.9929 22.1672Z" fill="#4F4F4F"/>
<path id="Vector_14" d="M26.577 21.4179C26.488 21.6491 26.3013 21.5255 26.1566 21.5255C25.7411 21.5255 25.5099 21.7418 25.4395 22.1313C25.3715 22.506 25.3888 22.8769 25.7251 23.1328C25.9773 23.3245 26.2679 23.3307 26.5213 23.1415C26.8465 22.8992 26.9331 22.5542 26.8539 22.1622C26.8057 21.9236 26.7649 21.685 26.7204 21.4451C26.9232 21.7431 27.1371 22.0176 27.1025 22.4293C27.0518 23.0624 26.7204 23.4803 26.1529 23.5124C25.7053 23.5384 25.2565 23.1452 25.1749 22.6568C25.0648 21.9978 25.3851 21.4068 25.939 21.3029C26.1504 21.2646 26.3928 21.2238 26.577 21.4179Z" fill="#4F4F4F"/>
<path id="Vector_15" d="M45.4846 23.6509C45.4994 22.8188 44.8701 22.1622 44.7402 21.1941C45.2447 21.7616 45.2224 22.4565 45.5996 22.8485C46.0298 23.2936 45.7133 23.4283 45.4846 23.6509Z" fill="#4F4F4F"/>
<path id="Vector_16" d="M40.7695 21.5292C40.9327 21.5601 41.0242 21.4204 41.1516 21.366C41.6116 21.1694 42.0332 21.3338 42.1803 21.8037C42.346 22.3317 42.2421 22.8683 42.1791 23.4037C41.891 23.0772 42.0295 22.6976 42.001 22.3428C41.9788 22.0609 42.0468 21.7431 41.7253 21.5898C41.4063 21.4377 41.1306 21.5626 40.8919 21.7926C40.8511 21.7048 40.8103 21.617 40.7695 21.5292Z" fill="#4F4F4F"/>
<path id="Vector_17" d="M30.9648 23.3913C30.9648 22.3984 30.9648 21.4056 30.9648 20.4127C31.0044 20.4127 31.044 20.4127 31.0835 20.4127C31.0835 21.408 31.0835 22.4034 31.0835 23.3987C31.044 23.3962 31.0044 23.3937 30.9648 23.3913Z" fill="#4F4F4F"/>
<path id="Vector_18" d="M40.7698 21.5292C40.8106 21.617 40.8514 21.7047 40.8922 21.7925C40.6412 22.3032 40.8922 22.8732 40.703 23.5235C40.5175 22.7644 40.7129 22.1103 40.5732 21.4748C40.5447 21.3524 40.7364 21.3474 40.7698 21.5292Z" fill="#4F4F4F"/>
<path id="Vector_19" d="M30.2229 21.3672C30.2229 22.0435 30.2229 22.7186 30.2229 23.395C30.1796 23.3962 30.1351 23.3974 30.0918 23.3987C30.0918 22.726 30.0918 22.0534 30.0918 21.3808C30.1351 21.3746 30.1796 21.3709 30.2229 21.3672Z" fill="#4F4F4F"/>
<path id="Vector_20" d="M45.9111 22.5183C46.0781 22.1313 46.0756 21.664 46.4354 21.3647C46.376 21.7975 46.2944 22.2204 45.9111 22.5183Z" fill="#4F4F4F"/>
</g>
</g>
<defs>
<clipPath id="clip0_371_491">
<rect width="50" height="28" fill="white"/>
</clipPath>
</defs>
</svg>
