<svg width="30" height="30" viewBox="0 0 30 30" fill="none" xmlns="http://www.w3.org/2000/svg">
<circle cx="15" cy="15" r="12.4" stroke="#ECA853" stroke-width="0.8" stroke-linecap="round" stroke-dasharray="6 6"/>
<path d="M26.5388 14.9999C26.5388 18.1108 25.3076 20.9346 23.306 23.0093C21.2075 25.1851 18.2623 26.5383 15.0007 26.5383C11.739 26.5383 8.79273 25.1851 6.69529 23.0088C4.6929 20.934 3.46191 18.1102 3.46191 14.9999C3.46191 8.62721 8.62813 3.46143 15.0007 3.46143C21.3732 3.46171 26.5388 8.62749 26.5388 14.9999Z" fill="#DFE0E1"/>
<path d="M18.9865 11.7315L18.9849 11.7332C18.7632 11.9574 18.6762 12.2821 18.7562 12.5872L18.7564 12.5883C18.8806 13.0617 18.6001 13.547 18.1278 13.6757C17.8228 13.7588 17.5845 13.9971 17.5014 14.3021C17.3727 14.7744 16.8874 15.055 16.414 14.9308L16.4131 14.9305C16.1081 14.8505 15.7834 14.9372 15.5592 15.1592L15.5575 15.1609C15.2097 15.5047 14.6503 15.5047 14.3025 15.1609L14.3008 15.1592C14.0766 14.9375 13.7519 14.8505 13.4468 14.9305L13.4457 14.9308C12.9723 15.055 12.487 14.7744 12.3583 14.3021C12.2752 13.9971 12.0369 13.7588 11.7319 13.6757C11.2596 13.547 10.9791 13.0617 11.1033 12.5883L11.1035 12.5875C11.1835 12.2824 11.0968 11.9577 10.8748 11.7335L10.8732 11.7318C10.5293 11.3843 10.5293 10.8246 10.8732 10.4768L10.8748 10.4751C11.0965 10.2509 11.1835 9.92618 11.1035 9.62115L11.1033 9.62003C10.9791 9.14658 11.2596 8.6613 11.7319 8.53259C12.0369 8.4495 12.2752 8.21123 12.3583 7.90621C12.487 7.43389 12.9723 7.15337 13.4457 7.27757L13.4466 7.27786C13.7516 7.35784 14.0763 7.2711 14.3005 7.04916L14.3022 7.04747C14.6497 6.70358 15.2094 6.70358 15.5572 7.04747L15.5589 7.04916C15.7831 7.27081 16.1078 7.35784 16.4129 7.27786L16.414 7.27757C16.8874 7.15337 17.3727 7.43389 17.5014 7.90621C17.5845 8.21123 17.8228 8.4495 18.1278 8.53259C18.6001 8.6613 18.8806 9.14658 18.7564 9.62003L18.7562 9.62087C18.6762 9.9259 18.7629 10.2506 18.9849 10.4748L18.9865 10.4765C19.3304 10.8243 19.3304 11.384 18.9865 11.7315Z" fill="#535B5F"/>
<path d="M16.6997 16.9074C16.4434 18.0337 15.7489 18.8417 14.9321 18.8417C14.1145 18.8417 13.4191 18.032 13.1631 16.9045L13.3602 16.1396L13.4194 15.9109H16.4426L16.6676 16.7851L16.6882 16.8634L16.6997 16.9074Z" fill="#D3D6DC"/>
<path d="M18.7363 12.6209C20.2417 10.9318 19.2373 15.0611 18.4045 14.5783C16.9408 13.73 18.7363 12.6209 18.7363 12.6209Z" fill="#F5F4F4"/>
<path d="M23.274 23.0652C22.4916 23.8752 21.5926 24.5717 20.6046 25.1285C19.8438 25.5569 19.0293 25.9008 18.1757 26.1501C17.3175 26.3993 16.4199 26.5523 15.4916 26.5959C15.3065 26.6061 15.1201 26.6106 14.9319 26.6106C13.998 26.6106 13.0902 26.4999 12.2202 26.2915C12.0949 26.2608 11.9696 26.2303 11.8456 26.1937C10.7731 25.8994 9.76484 25.455 8.84104 24.8824C8.01497 24.3709 7.26016 23.7603 6.58984 23.0655L6.78953 22.2786C7.09117 21.0968 8.0223 20.1789 9.20972 19.8947L9.34097 19.864L10.7965 19.5159L11.1942 19.4213C11.3618 19.3804 11.522 19.3235 11.6736 19.2509C11.7319 19.2233 11.7902 19.1912 11.8454 19.159C11.911 19.121 11.9735 19.0805 12.0349 19.0365C12.1574 18.9492 12.2723 18.8501 12.376 18.7408C12.6543 18.4479 12.8599 18.0865 12.9646 17.6801L13.119 17.0799L13.1598 16.9183L13.1626 16.905L13.3609 16.1401L13.4192 15.9114H16.4427L16.6686 16.7856L16.6888 16.8642L16.7004 16.9078L16.7018 16.918L16.744 17.0811L16.8984 17.6798C17.0426 18.2364 17.3763 18.7129 17.8295 19.0365C17.9374 19.1151 18.054 19.1852 18.1748 19.2435C18.3308 19.3207 18.4953 19.3804 18.6688 19.4213L19.0361 19.5086L20.6536 19.8947C21.841 20.1789 22.7721 21.0968 23.0738 22.2786L23.274 23.0652Z" fill="#F5F4F4"/>
<path d="M16.6997 16.9074C16.4434 18.0337 15.7489 18.8417 14.9321 18.8417C14.1145 18.8417 13.4191 18.032 13.1631 16.9045L13.3602 16.1396L13.4194 15.9109H16.4426L16.6676 16.7851L16.6882 16.8634L16.6997 16.9074Z" fill="#D3D6DC"/>
<path d="M11.1287 12.6209C9.62331 10.9318 10.6277 15.0611 11.4605 14.5783C12.9242 13.73 11.1287 12.6209 11.1287 12.6209Z" fill="#F5F4F4"/>
<path d="M18.4348 11.4038C18.4348 11.5319 18.4275 11.6573 18.4128 11.7826C18.4069 11.8454 18.388 12.0245 18.3573 12.2766C18.3326 12.4777 18.3005 12.7253 18.2596 12.9993L18.2582 13.0007C18.2086 13.3432 18.1444 13.7262 18.0687 14.111C18.0672 14.1155 18.0672 14.1211 18.0658 14.1256C17.8808 15.0626 17.62 15.9952 17.2789 16.3346C16.8942 16.7193 16.5852 17.0691 16.2326 17.3212C15.88 17.5746 15.4851 17.7321 14.9314 17.7321C14.3777 17.7321 13.9828 17.5746 13.6302 17.3212C13.279 17.0691 12.9686 16.7193 12.5839 16.3346C12.2428 15.9935 11.982 15.0595 11.7955 14.1242V14.1228C11.7941 14.1214 11.7941 14.12 11.7941 14.1183C11.7708 13.9975 11.7491 13.8763 11.7271 13.7569C11.7184 13.7074 11.7096 13.6578 11.7009 13.6082C11.6646 13.3984 11.6325 13.1931 11.6032 13.0007C11.4981 12.291 11.4471 11.7564 11.4471 11.7564C11.4356 11.6412 11.4297 11.5232 11.4297 11.4038C11.4297 11.3731 11.4297 11.3427 11.4311 11.312C11.4384 11.0365 11.4762 10.7684 11.5449 10.5121C11.5477 10.5005 11.5508 10.4887 11.5536 10.4772C11.9426 9.05484 13.206 7.99275 14.73 7.90826C14.7971 7.90403 14.8627 7.90234 14.9311 7.90234C15.8986 7.90234 16.7745 8.2944 17.4082 8.9281C17.956 9.47449 18.3233 10.2031 18.4123 11.0148C18.4275 11.143 18.4348 11.2725 18.4348 11.4038Z" fill="#F5F4F4"/>
<path d="M18.5367 11.4312C18.5367 11.563 18.5291 11.692 18.5142 11.821C18.5083 11.8855 18.4888 12.07 18.4573 12.3294C18.4319 12.5364 18.2604 12.9991 18.2604 12.9991C17.7954 12.9991 17.5786 12.6975 17.5786 12.2328V11.3712C17.5786 10.9009 17.1972 10.5195 16.7269 10.5195H13.139C12.6686 10.5195 12.2873 10.9009 12.2873 11.3712V12.2978C12.2873 12.7268 12.0329 13.0005 11.604 13.0005L11.3471 11.794C11.335 11.6754 11.3291 11.554 11.3291 11.4312C11.3291 11.3996 11.3291 11.3681 11.3305 11.3368C11.3381 11.0535 11.377 10.7775 11.4474 10.5136C11.4505 10.5015 11.4533 10.4896 11.4564 10.4775C11.8566 9.0141 13.1567 7.92103 14.7249 7.83428C14.7939 7.82978 14.8612 7.82837 14.9319 7.82837C15.9275 7.82837 16.8285 8.23169 17.4808 8.88398C18.0447 9.44615 18.4224 10.1959 18.5139 11.031C18.5291 11.1628 18.5367 11.2963 18.5367 11.4312Z" fill="#535B5F"/>
<path d="M15.4829 14.5528C15.4829 14.7944 15.2368 14.9902 14.932 14.9902C14.629 14.9902 14.3828 14.7944 14.3828 14.5528C14.3828 14.5238 14.3856 14.4948 14.3944 14.468C14.4425 14.6688 14.6653 14.8206 14.932 14.8206C15.2002 14.8206 15.4232 14.6688 15.4711 14.468C15.4801 14.4951 15.4829 14.5241 15.4829 14.5528Z" fill="#DFE0E1"/>
<path d="M23.2723 23.067C22.5336 23.8319 21.6915 24.4963 20.7674 25.0357C19.0538 26.0366 17.0589 26.6109 14.93 26.6109C12.7937 26.6109 10.7917 26.0324 9.0737 25.0241C8.15582 24.4865 7.32073 23.8263 6.58789 23.0658L6.78758 22.2803C7.08922 21.0971 8.02034 20.1792 9.20777 19.8951L9.51223 19.8221L10.7974 19.5162L11.112 19.4405L11.1922 19.4216C11.37 19.3794 11.5421 19.3168 11.7023 19.2366C12.5095 20.0962 13.6564 20.6338 14.93 20.6338C16.2036 20.6338 17.3502 20.0962 18.1576 19.2366C18.3179 19.3152 18.4883 19.3794 18.6677 19.4216L18.7319 19.4377L19.0133 19.5047L20.332 19.8196L20.6525 19.8953C21.8402 20.1795 22.771 21.0974 23.0712 22.2806L23.2723 23.067Z" fill="#D3D6DC"/>
<path d="M13.2651 15.0092C12.5627 15.0092 11.9912 14.4377 11.9912 13.7353C11.9912 13.0329 12.5627 12.4614 13.2651 12.4614C13.9675 12.4614 14.539 13.0329 14.539 13.7353C14.539 14.4377 13.9675 15.0092 13.2651 15.0092ZM13.2651 12.607C12.6429 12.607 12.1368 13.1132 12.1368 13.7353C12.1368 14.3575 12.6429 14.8636 13.2651 14.8636C13.8873 14.8636 14.3934 14.3575 14.3934 13.7353C14.3934 13.1132 13.8873 12.607 13.2651 12.607Z" fill="#D3D6DC"/>
<path d="M16.6001 15.0092C15.8976 15.0092 15.3262 14.4377 15.3262 13.7353C15.3262 13.0329 15.8976 12.4614 16.6001 12.4614C17.3025 12.4614 17.8739 13.0329 17.8739 13.7353C17.8739 14.4377 17.3025 15.0092 16.6001 15.0092ZM16.6001 12.607C15.9779 12.607 15.4718 13.1132 15.4718 13.7353C15.4718 14.3575 15.9779 14.8636 16.6001 14.8636C17.2222 14.8636 17.7283 14.3575 17.7283 13.7353C17.7283 13.1132 17.2222 12.607 16.6001 12.607Z" fill="#D3D6DC"/>
<path d="M15.4717 13.7354H15.3261C15.3261 13.5185 15.1495 13.3419 14.9326 13.3419C14.7158 13.3419 14.5392 13.5185 14.5392 13.7354H14.3936C14.3936 13.4379 14.6355 13.1963 14.9326 13.1963C15.23 13.1963 15.4717 13.4379 15.4717 13.7354Z" fill="#D3D6DC"/>
<path d="M11.8456 19.1587V26.1937C10.7731 25.8993 9.76484 25.4549 8.84104 24.8823C8.01497 24.3708 7.26016 23.7602 6.58984 23.0654L6.78953 22.2785C7.09117 21.0967 8.0223 20.1788 9.20972 19.8946L9.34097 19.8639L10.7965 19.5158L11.1942 19.4212C11.3618 19.3803 11.522 19.3235 11.6736 19.2508C11.7321 19.2229 11.7902 19.1908 11.8456 19.1587Z" fill="#6E7275"/>
<path d="M23.2741 23.0654C22.4917 23.8754 21.5927 24.5719 20.6047 25.1287C19.844 25.5571 19.0295 25.901 18.1758 26.1503V19.2432C18.3318 19.3203 18.4963 19.38 18.6698 19.4209L19.0371 19.5082L20.6546 19.8943C21.842 20.1785 22.7731 21.0964 23.0747 22.2782L23.2741 23.0654Z" fill="#6E7275"/>
</svg>