<svg width="67" height="63" viewBox="0 0 67 63" fill="none" xmlns="http://www.w3.org/2000/svg">
<path d="M67 32.2643C67 49.2392 48.4525 63 31.2137 63C13.9748 63 0 49.2392 0 32.2643C0 15.2895 6.17539 2.32335e-07 23.4142 2.32335e-07C40.6531 2.32335e-07 67 15.2895 67 32.2643Z" fill="#C26143"/>
<g clip-path="url(#clip0_136_284)">
<path d="M21.2476 22.8962C20.5243 23.4509 21.0376 23.9842 22.321 23.9842C23.6976 23.9842 25.4476 26.8856 25.4476 29.1042C25.4476 30.2136 25.2843 30.2776 22.8809 30.2776C15.9976 30.2776 13.5476 35.6535 18.471 39.9628C25.471 46.1068 35.2243 38.0642 31.7709 28.9976C29.9976 24.4109 23.8843 20.8695 21.2476 22.8962Z" fill="#FFFEFD"/>
<path d="M49.5277 27.9096C47.591 24.1762 41.221 20.9122 38.6309 22.2988C37.9076 22.6828 38.1876 23.0456 39.961 24.0696C43.3677 26.0536 44.4177 29.3176 41.641 29.3176C33.8476 29.3176 31.9343 39.3868 39.3309 41.4775C48.1977 43.9735 53.9377 36.3362 49.5277 27.9096Z" fill="#FFFEFD"/>
</g>
<defs>
<clipPath id="clip0_136_284">
<rect width="35" height="32" fill="white" transform="translate(16 16)"/>
</clipPath>
</defs>
</svg>
