<svg width="20" height="21" viewBox="0 0 20 21" fill="none" xmlns="http://www.w3.org/2000/svg">
<g id="shopping bag">
<path id="Rectangle 788" opacity="0.4" d="M2.38809 8.26285C2.74282 6.37096 4.39472 5 6.31958 5H13.6802C15.605 5 17.2569 6.37095 17.6117 8.26285L19.1117 16.2628C19.5732 18.7245 17.6847 21 15.1802 21H4.81958C2.31502 21 0.426527 18.7245 0.888087 16.2628L2.38809 8.26285Z" fill="white"/>
<path id="Rectangle 760 (Stroke)" fill-rule="evenodd" clip-rule="evenodd" d="M6.25 4C6.25 1.92893 7.92893 0.25 10 0.25C12.0711 0.25 13.75 1.92893 13.75 4V7C13.75 7.41421 13.4142 7.75 13 7.75C12.5858 7.75 12.25 7.41421 12.25 7V4C12.25 2.75736 11.2426 1.75 10 1.75C8.75736 1.75 7.75 2.75736 7.75 4V7C7.75 7.41421 7.41421 7.75 7 7.75C6.58579 7.75 6.25 7.41421 6.25 7V4Z" fill="white"/>
</g>
</svg>
