<svg width="218" height="104" viewBox="0 0 218 104" fill="none" xmlns="http://www.w3.org/2000/svg">
<g clip-path="url(#clip0_183_138)">
<path d="M13.9825 27.5696C34.6827 29.7749 11.326 52.5054 11.326 52.5054C11.326 52.5054 -6.71506 25.3646 13.9825 27.5696ZM12.302 43.3438C13.6856 43.4892 15.0813 43.2209 16.3126 42.5729C17.5439 41.9249 18.5557 40.9263 19.2199 39.7032C19.8842 38.4802 20.1712 37.0877 20.0446 35.7016C19.918 34.3156 19.3836 32.9982 18.5088 31.916C17.6341 30.8337 16.4583 30.0353 15.13 29.6215C13.8017 29.2076 12.3806 29.1971 11.0462 29.591C9.71181 29.985 8.52406 30.7659 7.63309 31.835C6.74212 32.904 6.1879 34.2133 6.04045 35.5973C5.94242 36.5174 6.02668 37.4479 6.28841 38.3354C6.55014 39.2229 6.98419 40.05 7.56575 40.7695C8.14731 41.489 8.86497 42.0867 9.67766 42.5284C10.4904 42.9701 11.3822 43.2472 12.302 43.3438Z" fill="#917155"/>
<path d="M13.6919 30.3042C14.8865 30.4314 16.0166 30.9103 16.9391 31.6801C17.8616 32.45 18.5351 33.4763 18.8745 34.6292C19.2139 35.7821 19.2039 37.0099 18.8458 38.1572C18.4877 39.3045 17.7975 40.3198 16.8626 41.0747C15.9277 41.8296 14.79 42.2902 13.5935 42.3982C12.3969 42.5063 11.1953 42.2568 10.1405 41.6816C9.08577 41.1063 8.22527 40.2309 7.66785 39.1663C7.11043 38.1016 6.88111 36.8955 7.00895 35.7004C7.09347 34.907 7.3334 34.1381 7.71503 33.4375C8.09666 32.7369 8.61252 32.1184 9.23313 31.6172C9.85374 31.1161 10.5669 30.7422 11.332 30.5169C12.097 30.2916 12.899 30.2193 13.6919 30.3042ZM12.5085 41.4126C13.5105 41.5188 14.5215 41.3254 15.4137 40.8569C16.3059 40.3883 17.0393 39.6656 17.521 38.7802C18.0027 37.8948 18.2113 36.8863 18.1202 35.8824C18.0292 34.8785 17.6426 33.9241 17.0094 33.14C16.3763 32.3559 15.5249 31.7772 14.563 31.4771C13.6011 31.177 12.5718 31.1691 11.6053 31.4542C10.6388 31.7393 9.77842 32.3047 9.13302 33.0789C8.48762 33.8531 8.08617 34.8013 7.97938 35.8037C7.83683 37.1484 8.23385 38.4946 9.08316 39.5464C9.93247 40.5981 11.1645 41.2694 12.5085 41.4126Z" fill="#917155"/>
<path d="M8.45892 57.125C8.40929 57.5909 8.49883 58.0609 8.71624 58.4758C8.93365 58.8906 9.26915 59.2316 9.68031 59.4557C10.0915 59.6798 10.5598 59.7769 11.0262 59.7346C11.4925 59.6924 11.9358 59.5128 12.3001 59.2185C12.6645 58.9242 12.9334 58.5284 13.0729 58.0813C13.2124 57.6341 13.2162 57.1556 13.0839 56.7063C12.9516 56.2569 12.689 55.857 12.3295 55.5569C11.9699 55.2569 11.5295 55.0703 11.0639 55.0207C10.4396 54.9542 9.81434 55.1385 9.32581 55.5331C8.83728 55.9278 8.52546 56.5004 8.45892 57.125Z" fill="#ECA853"/>
<path d="M278.035 101.112C278.243 101.134 278.452 101.073 278.614 100.941C278.777 100.81 278.881 100.619 278.903 100.411C278.926 100.202 278.864 99.9939 278.733 99.831C278.601 99.6681 278.411 99.5641 278.202 99.542C276.467 99.3412 274.719 99.0676 272.999 98.723C272.897 98.7027 272.792 98.7028 272.69 98.7231C272.588 98.7435 272.491 98.7837 272.404 98.8416C272.318 98.8995 272.244 98.9739 272.186 99.0604C272.128 99.147 272.088 99.2441 272.068 99.3462C272.047 99.4483 272.047 99.5534 272.068 99.6555C272.088 99.7576 272.128 99.8547 272.186 99.9412C272.244 100.028 272.318 100.102 272.405 100.16C272.491 100.218 272.588 100.258 272.69 100.278C274.447 100.627 276.238 100.921 278.017 101.11L278.035 101.112ZM283.345 101.5L283.392 101.505C285.198 101.563 287.012 101.544 288.787 101.448C288.892 101.443 288.995 101.418 289.09 101.374C289.185 101.329 289.271 101.266 289.341 101.188C289.411 101.11 289.466 101.018 289.5 100.919C289.535 100.82 289.549 100.715 289.543 100.61C289.532 100.401 289.439 100.205 289.284 100.065C289.128 99.9249 288.924 99.8521 288.715 99.8627C286.983 99.956 285.214 99.974 283.456 99.9164C283.352 99.913 283.249 99.9302 283.152 99.9668C283.055 100.004 282.966 100.059 282.89 100.13C282.814 100.201 282.753 100.287 282.711 100.381C282.668 100.476 282.645 100.578 282.642 100.682C282.633 100.882 282.701 101.078 282.832 101.23C282.962 101.382 283.146 101.479 283.345 101.5ZM267.596 99.0287C267.803 99.0686 268.016 99.0248 268.19 98.9071C268.364 98.7894 268.484 98.6074 268.524 98.4011C268.564 98.1947 268.52 97.981 268.403 97.807C268.285 97.6329 268.103 97.5127 267.897 97.4728C266.205 96.9908 264.527 96.4336 262.905 95.8162C262.807 95.7764 262.703 95.7566 262.598 95.7578C262.493 95.759 262.389 95.7812 262.292 95.8232C262.196 95.8651 262.109 95.9259 262.036 96.0019C261.963 96.078 261.907 96.1679 261.869 96.2662C261.832 96.3645 261.814 96.4693 261.818 96.5744C261.822 96.6796 261.846 96.783 261.89 96.8785C261.934 96.974 261.997 97.0597 262.075 97.1306C262.153 97.2015 262.244 97.2561 262.343 97.2913C264.008 97.9239 265.73 98.4964 267.452 98.9895C267.499 99.0097 267.546 99.0254 267.596 99.0365L267.596 99.0287ZM257.649 95.2377C257.833 95.2559 258.018 95.2088 258.171 95.1045C258.324 95.0002 258.435 94.8455 258.486 94.6674C258.536 94.4893 258.523 94.2991 258.447 94.13C258.372 93.961 258.239 93.8238 258.073 93.7426C256.481 92.9696 254.931 92.1217 253.466 91.2246C253.287 91.115 253.073 91.0809 252.869 91.1297C252.665 91.1784 252.489 91.3061 252.38 91.4847C252.27 91.6632 252.236 91.878 252.285 92.0817C252.334 92.2854 252.461 92.4614 252.64 92.571C254.15 93.4941 255.745 94.3653 257.39 95.1625C257.47 95.2061 257.558 95.2343 257.648 95.2456L257.649 95.2377ZM43.9024 70.4444L43.9155 70.4458C45.6922 70.6033 47.4958 70.7081 49.2793 70.7526C49.4891 70.7591 49.6928 70.682 49.8458 70.5383C49.9988 70.3945 50.0885 70.1958 50.095 69.986C50.1016 69.7761 50.0246 69.5722 49.8809 69.4192C49.7372 69.2661 49.5386 69.1765 49.3288 69.1699C47.5755 69.1155 45.801 69.0111 44.0556 68.8569C43.9525 68.847 43.8484 68.8575 43.7493 68.8878C43.6502 68.9181 43.558 68.9676 43.478 69.0335C43.398 69.0995 43.3318 69.1805 43.2831 69.2721C43.2345 69.3636 43.2043 69.4639 43.1943 69.5671C43.1844 69.6703 43.1948 69.7744 43.2251 69.8736C43.2554 69.9727 43.3049 70.0649 43.3708 70.145C43.4367 70.225 43.5177 70.2912 43.6092 70.3399C43.7007 70.3886 43.8009 70.4188 43.9041 70.4287L43.9024 70.4444ZM38.6113 69.8278C38.819 69.8538 39.0285 69.7961 39.1938 69.6676C39.359 69.539 39.4665 69.3501 39.4925 69.1423C39.5185 68.9345 39.4609 68.7248 39.3324 68.5595C39.2039 68.3942 39.0151 68.2867 38.8074 68.2608C37.0673 68.0066 35.3196 67.7013 33.614 67.3476C33.408 67.3053 33.1937 67.3465 33.0181 67.4623C32.8426 67.5781 32.7202 67.759 32.6779 67.965C32.6356 68.1711 32.6768 68.3855 32.7926 68.5611C32.9083 68.7368 33.089 68.8592 33.295 68.9015C35.0372 69.2591 36.8187 69.5706 38.5872 69.8305L38.6113 69.8278ZM54.5444 70.7683L54.6491 70.7795C56.4397 70.732 58.2438 70.6331 60.0142 70.4777C60.1186 70.4703 60.2205 70.4423 60.314 70.3953C60.4074 70.3482 60.4906 70.283 60.5586 70.2035C60.6267 70.1239 60.6783 70.0316 60.7103 69.932C60.7424 69.8323 60.7543 69.7273 60.7455 69.623C60.7366 69.5187 60.707 69.4172 60.6586 69.3244C60.6101 69.2316 60.5437 69.1494 60.4632 69.0826C60.3827 69.0157 60.2897 68.9656 60.1896 68.935C60.0895 68.9044 59.9843 68.8941 59.8802 68.9046C58.1397 69.0526 56.3673 69.1523 54.6083 69.2004C54.3988 69.1918 54.1944 69.2668 54.04 69.4089C53.8858 69.5511 53.7942 69.7487 53.7856 69.9583C53.7769 70.168 53.8518 70.3725 53.9939 70.5268C54.136 70.6812 54.3335 70.7728 54.5431 70.7814L54.5444 70.7683ZM28.1824 67.6767C28.3888 67.7148 28.602 67.6693 28.7749 67.5503C28.9478 67.4312 29.0664 67.2483 29.1045 67.0418C29.1427 66.8353 29.0972 66.6221 28.9782 66.4491C28.8593 66.2761 28.6764 66.1575 28.47 66.1194C26.7664 65.6732 25.0684 65.1483 23.4186 64.5941C23.3191 64.555 23.2126 64.5365 23.1058 64.5399C22.9989 64.5432 22.8939 64.5682 22.7969 64.6133C22.7 64.6585 22.6133 64.7229 22.542 64.8026C22.4708 64.8823 22.4164 64.9757 22.3823 65.0771C22.3481 65.1784 22.335 65.2857 22.3435 65.3923C22.3521 65.4989 22.3822 65.6026 22.4321 65.6972C22.4819 65.7918 22.5505 65.8753 22.6336 65.9426C22.7167 66.0099 22.8126 66.0596 22.9155 66.0887C24.5959 66.6541 26.3283 67.1774 28.0614 67.6453C28.0997 67.6608 28.139 67.6738 28.179 67.6842L28.1824 67.6767ZM248.576 89.6715C248.747 89.6895 248.919 89.6511 249.066 89.5622C249.214 89.4732 249.328 89.3387 249.392 89.1789C249.455 89.0191 249.465 88.8429 249.42 88.677C249.374 88.5112 249.275 88.3647 249.139 88.26C247.767 87.2139 246.417 86.0751 245.124 84.8787C244.97 84.7364 244.767 84.6609 244.557 84.6689C244.348 84.6769 244.151 84.7677 244.008 84.9213C243.866 85.075 243.791 85.2789 243.799 85.4882C243.807 85.6975 243.897 85.895 244.051 86.0374C245.38 87.2667 246.77 88.4443 248.177 89.5152C248.294 89.6061 248.434 89.6631 248.58 89.6799L248.576 89.6715ZM65.1479 69.8654C65.214 69.8724 65.2807 69.8715 65.3466 69.8628C67.1229 69.6021 68.9051 69.2865 70.6371 68.9205C70.7385 68.8992 70.8348 68.858 70.9204 68.7995C71.0059 68.7409 71.0792 68.6661 71.1358 68.5792C71.1925 68.4924 71.2315 68.3952 71.2506 68.2933C71.2697 68.1913 71.2686 68.0866 71.2473 67.9851C71.226 67.8836 71.1849 67.7873 71.1264 67.7017C71.0678 67.6161 70.993 67.5429 70.9062 67.4862C70.8194 67.4295 70.7223 67.3905 70.6204 67.3714C70.5185 67.3523 70.4138 67.3534 70.3124 67.3747C68.6114 67.7228 66.8629 68.0447 65.1162 68.3006C64.9272 68.3297 64.7552 68.4265 64.6321 68.573C64.5091 68.7195 64.4434 68.9057 64.4472 69.0969C64.4511 69.2882 64.5243 69.4716 64.6532 69.6129C64.782 69.7543 64.9578 69.844 65.1479 69.8654ZM75.5669 67.6646C75.6662 67.6747 75.7666 67.6665 75.8631 67.6406C77.5974 67.1531 79.3222 66.6064 80.9913 66.0114C81.089 65.9767 81.1789 65.923 81.2558 65.8535C81.3327 65.7839 81.3952 65.6999 81.4397 65.6063C81.4842 65.5126 81.5099 65.4111 81.5151 65.3075C81.5204 65.2039 81.5052 65.1003 81.4705 65.0026C81.4357 64.9049 81.3821 64.8149 81.3126 64.738C81.2431 64.661 81.1592 64.5985 81.0655 64.554C80.9719 64.5095 80.8704 64.4839 80.7669 64.4786C80.6633 64.4733 80.5598 64.4885 80.4621 64.5233C78.8287 65.1062 77.1366 65.6431 75.438 66.1185C75.2608 66.1676 75.1063 66.2771 75.0012 66.428C74.8961 66.5789 74.8469 66.7617 74.8622 66.945C74.8775 67.1283 74.9562 67.3005 75.0849 67.4319C75.2136 67.5633 75.384 67.6456 75.5669 67.6646ZM240.768 82.4589C240.927 82.4761 241.088 82.4445 241.229 82.3682C241.369 82.292 241.484 82.1747 241.556 82.032C241.629 81.8893 241.656 81.7279 241.635 81.5692C241.614 81.4105 241.545 81.262 241.437 81.1434C240.299 79.8868 239.162 78.5191 238.056 77.1045C237.994 77.0191 237.915 76.9472 237.824 76.8929C237.734 76.8385 237.633 76.803 237.529 76.7882C237.424 76.7735 237.317 76.7799 237.215 76.8071C237.113 76.8343 237.018 76.8817 236.934 76.9465C236.851 77.0114 236.781 77.0923 236.73 77.1845C236.678 77.2767 236.646 77.3783 236.634 77.4833C236.622 77.5883 236.632 77.6946 236.662 77.7959C236.692 77.8971 236.743 77.9912 236.81 78.0727C237.942 79.5166 239.105 80.9161 240.269 82.2046C240.399 82.3476 240.576 82.4381 240.768 82.4589ZM85.5942 64.0749C85.7307 64.0891 85.8686 64.0683 85.9948 64.0144C87.5989 63.3093 89.2317 62.5332 90.8469 61.6995C90.9448 61.6556 91.0327 61.5921 91.1053 61.513C91.1778 61.4339 91.2335 61.3408 91.2688 61.2394C91.3042 61.1381 91.3185 61.0306 91.3109 60.9235C91.3034 60.8164 91.274 60.712 91.2247 60.6166C91.1755 60.5213 91.1073 60.437 91.0243 60.3689C90.9414 60.3008 90.8454 60.2504 90.7423 60.2207C90.6392 60.191 90.5311 60.1826 90.4246 60.1961C90.3182 60.2096 90.2156 60.2447 90.1231 60.2992C88.539 61.1149 86.9363 61.881 85.3603 62.5706C85.2015 62.6409 85.0702 62.7615 84.9869 62.914C84.9036 63.0664 84.8728 63.2421 84.8994 63.4138C84.9261 63.5854 85.0085 63.7435 85.1341 63.8636C85.2596 63.9836 85.4213 64.0588 85.5939 64.0776L85.5942 64.0749ZM234.202 74.0712C234.388 74.0904 234.575 74.0428 234.73 73.9369C234.815 73.8784 234.888 73.8036 234.945 73.7168C235.002 73.63 235.041 73.5329 235.06 73.431C235.079 73.3291 235.078 73.2244 235.057 73.1229C235.036 73.0214 234.995 72.9251 234.936 72.8394C233.993 71.4607 233.048 70.0076 232.052 68.4009C231.942 68.2228 231.765 68.0959 231.561 68.0481C231.357 68.0003 231.143 68.0356 230.964 68.1461C230.786 68.2566 230.66 68.4334 230.612 68.6375C230.564 68.8416 230.599 69.0563 230.71 69.2345C231.721 70.8614 232.676 72.3313 233.633 73.73C233.697 73.8249 233.781 73.9045 233.88 73.9634C233.978 74.0224 234.088 74.0591 234.202 74.0712ZM95.052 59.2258C95.2197 59.2433 95.3887 59.2065 95.534 59.121C97.0125 58.2543 98.5449 57.3033 100.091 56.2983C100.267 56.184 100.39 56.0046 100.433 55.7995C100.477 55.5945 100.437 55.3805 100.323 55.2048C100.208 55.0291 100.029 54.906 99.8241 54.8626C99.6191 54.8191 99.4053 54.8589 99.2297 54.9732C97.7058 55.9674 96.1934 56.9046 94.7346 57.7602C94.5936 57.8453 94.4827 57.9725 94.4175 58.1239C94.3523 58.2752 94.3361 58.4432 94.3712 58.6042C94.4062 58.7653 94.4908 58.9113 94.613 59.0218C94.7352 59.1323 94.8889 59.2018 95.0526 59.2205L95.052 59.2258ZM103.986 53.4316C104.178 53.4538 104.372 53.4047 104.53 53.2937C105.894 52.3354 107.31 51.3111 108.861 50.1584C108.949 50.0987 109.025 50.0218 109.082 49.9322C109.14 49.8427 109.179 49.7423 109.197 49.6373C109.215 49.5322 109.211 49.4247 109.187 49.321C109.162 49.2173 109.117 49.1198 109.053 49.0341C108.99 48.9485 108.91 48.8767 108.818 48.8229C108.726 48.7691 108.624 48.7345 108.518 48.7211C108.412 48.7078 108.305 48.716 108.203 48.7452C108.1 48.7745 108.005 48.8241 107.922 48.8913C106.382 50.0346 104.975 51.0518 103.623 52.0008C103.538 52.0604 103.465 52.1363 103.41 52.224C103.354 52.3117 103.316 52.4096 103.298 52.5119C103.281 52.6143 103.283 52.7191 103.306 52.8205C103.329 52.9218 103.371 53.0177 103.431 53.1025C103.497 53.1943 103.582 53.2708 103.68 53.3269C103.778 53.383 103.887 53.4174 104 53.4277L103.986 53.4316ZM228.571 65.0288C228.737 65.0457 228.905 65.0089 229.05 64.9238C229.23 64.8183 229.362 64.6455 229.415 64.4433C229.468 64.241 229.439 64.0259 229.334 63.8452C228.418 62.2681 227.522 60.6933 226.691 59.2286C226.643 59.1326 226.577 59.0474 226.495 58.9781C226.413 58.9088 226.318 58.8569 226.215 58.8256C226.113 58.7943 226.005 58.7842 225.899 58.7959C225.792 58.8076 225.689 58.841 225.596 58.8938C225.503 58.9467 225.421 59.018 225.356 59.1035C225.291 59.1889 225.245 59.2866 225.219 59.3907C225.193 59.4948 225.189 59.6031 225.206 59.7089C225.224 59.8147 225.262 59.9158 225.32 60.0062C226.15 61.4761 227.048 63.0564 227.972 64.6395C228.034 64.747 228.121 64.8382 228.225 64.9058C228.329 64.9735 228.447 65.0156 228.571 65.0288ZM112.57 47.0999C112.771 47.1212 112.972 47.0649 113.132 46.9427C114.168 46.1533 115.203 45.3611 116.237 44.5661L117.363 43.7016C117.446 43.6384 117.515 43.5596 117.566 43.4698C117.618 43.3799 117.652 43.2807 117.666 43.1778C117.679 43.0749 117.672 42.9704 117.645 42.8702C117.618 42.7699 117.572 42.676 117.509 42.5936C117.446 42.5113 117.367 42.4423 117.277 42.3904C117.188 42.3385 117.088 42.3049 116.986 42.2913C116.883 42.2778 116.778 42.2846 116.678 42.3115C116.578 42.3384 116.484 42.3847 116.402 42.4479L115.275 43.3124L112.176 45.687C112.05 45.7827 111.956 45.914 111.906 46.0638C111.856 46.2137 111.852 46.3751 111.894 46.5273C111.937 46.6795 112.024 46.8154 112.144 46.9175C112.265 47.0195 112.413 47.0831 112.57 47.0999ZM223.28 55.7635C223.445 55.7818 223.611 55.7466 223.754 55.6631C223.935 55.5593 224.068 55.3879 224.123 55.1865C224.178 54.985 224.151 54.7699 224.048 54.5882C223.594 53.7899 223.136 52.9966 222.675 52.2082C222.227 51.4433 221.778 50.6915 221.339 49.9725C221.288 49.8783 221.219 49.7955 221.135 49.7291C221.051 49.6627 220.954 49.614 220.851 49.5861C220.748 49.5581 220.64 49.5515 220.534 49.5666C220.428 49.5817 220.326 49.6182 220.235 49.6738C220.143 49.7295 220.064 49.8031 220.002 49.8904C219.94 49.9776 219.896 50.0765 219.874 50.1811C219.851 50.2858 219.85 50.3939 219.87 50.499C219.891 50.6041 219.932 50.7039 219.993 50.7924C220.425 51.5027 220.869 52.2487 221.312 53.0052C221.756 53.7617 222.224 54.5791 222.679 55.3713C222.742 55.4815 222.831 55.5748 222.938 55.6433C223.045 55.7118 223.167 55.7535 223.293 55.7649L223.28 55.7635ZM121.026 40.6354C121.221 40.6528 121.415 40.5971 121.571 40.4791C123.128 39.3032 124.526 38.2718 125.842 37.3189C125.932 37.261 126.01 37.1853 126.07 37.0963C126.13 37.0074 126.171 36.9072 126.191 36.8017C126.211 36.6963 126.209 36.5879 126.186 36.4831C126.163 36.3783 126.119 36.2794 126.056 36.1924C125.993 36.1053 125.913 36.032 125.821 35.9769C125.729 35.9218 125.627 35.886 125.52 35.8718C125.414 35.8576 125.306 35.8652 125.203 35.8941C125.099 35.9231 125.003 35.9729 124.92 36.0404C123.596 36.9976 122.189 38.036 120.613 39.2153C120.487 39.3097 120.392 39.4399 120.34 39.5889C120.288 39.738 120.282 39.8992 120.323 40.0517C120.364 40.2041 120.449 40.3409 120.568 40.4443C120.688 40.5477 120.835 40.613 120.992 40.6318L121.026 40.6354ZM217.73 46.6768C217.914 46.6979 218.099 46.6518 218.252 46.5472C218.425 46.4307 218.546 46.2502 218.586 46.0452C218.627 45.8401 218.585 45.6274 218.469 45.4535C217.444 43.9257 216.408 42.455 215.356 41.0753C215.229 40.9111 215.043 40.8036 214.837 40.7761C214.631 40.7486 214.423 40.8033 214.257 40.9283C214.091 41.0534 213.981 41.2388 213.951 41.4443C213.921 41.6498 213.973 41.8588 214.096 42.0262C215.118 43.3816 216.149 44.8305 217.16 46.3223C217.223 46.4198 217.307 46.5021 217.405 46.5634C217.504 46.6246 217.615 46.6634 217.73 46.6768ZM129.684 34.4016C129.87 34.4215 130.057 34.3748 130.211 34.2698C130.431 34.1186 130.653 33.9702 130.874 33.8111C132.116 32.9775 133.39 32.1658 134.66 31.3933C134.829 31.2804 134.948 31.1066 134.992 30.9081C135.037 30.7096 135.003 30.5017 134.897 30.3278C134.792 30.1538 134.624 30.0272 134.427 29.9744C134.231 29.9215 134.022 29.9464 133.844 30.0439C132.551 30.8272 131.257 31.6527 129.998 32.4978L129.325 32.9554C129.191 33.0462 129.088 33.176 129.031 33.3271C128.973 33.4783 128.963 33.6435 129.002 33.8004C129.042 33.9574 129.128 34.0984 129.25 34.2046C129.372 34.3107 129.524 34.3767 129.685 34.3937L129.684 34.4016ZM211.307 38.1853C211.416 38.1952 211.525 38.1825 211.629 38.1479C211.732 38.1134 211.827 38.0578 211.908 37.9847C212.066 37.8478 212.164 37.6536 212.179 37.4448C212.195 37.236 212.126 37.0297 211.99 36.8712C210.794 35.4841 209.559 34.1564 208.32 32.9287C208.17 32.7888 207.971 32.7128 207.766 32.7168C207.562 32.7207 207.366 32.8044 207.222 32.95C207.077 33.0956 206.995 33.2917 206.993 33.4968C206.99 33.7019 207.068 33.8999 207.209 34.0488C208.418 35.2363 209.625 36.5478 210.795 37.9032C210.923 38.0594 211.107 38.1604 211.307 38.1853ZM138.801 28.873C138.958 28.8893 139.116 28.8582 139.255 28.7838C140.821 27.9475 142.41 27.1535 143.986 26.4215C144.083 26.3799 144.17 26.3191 144.244 26.2429C144.317 26.1667 144.374 26.0766 144.412 25.9779C144.449 25.8792 144.467 25.7739 144.463 25.6683C144.46 25.5627 144.435 25.459 144.39 25.3631C144.346 25.2673 144.282 25.1814 144.204 25.1105C144.126 25.0396 144.034 24.9852 143.934 24.9504C143.835 24.9157 143.729 24.9013 143.623 24.9082C143.518 24.915 143.415 24.943 143.321 24.9904C141.721 25.7329 140.1 26.5422 138.512 27.3893C138.364 27.469 138.244 27.5943 138.172 27.7468C138.1 27.8994 138.078 28.0711 138.11 28.2368C138.143 28.4025 138.227 28.5534 138.352 28.6675C138.476 28.7815 138.634 28.8527 138.802 28.8704L138.801 28.873ZM203.735 30.7014C203.903 30.7195 204.073 30.6827 204.219 30.5966C204.365 30.5105 204.48 30.3796 204.546 30.2233C204.612 30.067 204.626 29.8936 204.585 29.7288C204.545 29.564 204.453 29.4166 204.322 29.3084C202.917 28.1425 201.462 27.0532 200.001 26.0692C199.828 25.9632 199.62 25.9284 199.421 25.9718C199.223 26.0153 199.049 26.1337 198.935 26.3024C198.822 26.4712 198.778 26.6772 198.812 26.8776C198.847 27.078 198.957 27.2573 199.121 27.3781C200.539 28.3231 201.951 29.3919 203.314 30.5243C203.434 30.6234 203.58 30.685 203.735 30.7014ZM148.466 24.3952C148.592 24.4083 148.719 24.391 148.836 24.3447C150.493 23.6954 152.163 23.1112 153.807 22.5797C153.909 22.5514 154.005 22.5028 154.088 22.4367C154.171 22.3706 154.24 22.2884 154.291 22.195C154.341 22.1017 154.372 21.999 154.382 21.8933C154.392 21.7876 154.381 21.6809 154.349 21.5797C154.317 21.4785 154.265 21.3848 154.195 21.3043C154.126 21.2237 154.042 21.158 153.946 21.1109C153.851 21.0639 153.748 21.0365 153.642 21.0305C153.536 21.0245 153.43 21.0399 153.33 21.0759C151.654 21.6067 149.947 22.2135 148.26 22.8753C148.096 22.94 147.958 23.058 147.868 23.2105C147.779 23.3629 147.743 23.541 147.767 23.7161C147.79 23.8913 147.872 24.0534 147.999 24.1765C148.126 24.2996 148.29 24.3766 148.466 24.3952ZM158.625 21.1848C158.714 21.1936 158.804 21.1879 158.891 21.1682C160.62 20.7543 162.358 20.4101 164.055 20.1463C164.161 20.1346 164.263 20.1014 164.356 20.049C164.449 19.9965 164.53 19.9257 164.595 19.841C164.66 19.7562 164.707 19.6592 164.733 19.5558C164.759 19.4524 164.764 19.3447 164.748 19.2393C164.731 19.134 164.694 19.033 164.637 18.9426C164.58 18.8522 164.506 18.7742 164.419 18.7133C164.331 18.6524 164.232 18.6099 164.128 18.5884C164.023 18.5668 163.915 18.5667 163.811 18.588C162.074 18.8554 160.306 19.2096 158.526 19.6313C158.344 19.6742 158.184 19.7799 158.073 19.9298C157.962 20.0796 157.908 20.2639 157.92 20.4499C157.931 20.636 158.009 20.8119 158.138 20.9464C158.267 21.0809 158.439 21.1653 158.625 21.1848ZM194.913 24.7861C195.096 24.8054 195.279 24.7604 195.432 24.6588C195.585 24.5573 195.698 24.4055 195.751 24.2297C195.805 24.0538 195.795 23.865 195.724 23.6956C195.653 23.5262 195.525 23.3869 195.362 23.3016C193.763 22.4625 192.117 21.7163 190.431 21.0667C190.236 20.9915 190.019 20.997 189.827 21.0821C189.636 21.1672 189.486 21.3248 189.411 21.5203C189.336 21.7159 189.341 21.9333 189.426 22.1248C189.511 22.3162 189.669 22.466 189.864 22.5412C191.493 23.1694 193.085 23.8904 194.631 24.7005C194.717 24.7435 194.81 24.7705 194.906 24.7801L194.913 24.7861ZM169.14 19.5712C169.185 19.5756 169.231 19.576 169.277 19.5726C171.04 19.4587 172.809 19.4195 174.524 19.4858C174.734 19.4927 174.938 19.416 175.091 19.2725C175.244 19.129 175.334 18.9305 175.341 18.7206C175.348 18.5108 175.271 18.3068 175.128 18.1536C174.984 18.0003 174.786 17.9103 174.576 17.9034C172.807 17.8473 170.99 17.876 169.175 17.995C168.965 17.9902 168.762 18.069 168.61 18.2141C168.458 18.3592 168.37 18.5588 168.366 18.7688C168.361 18.9789 168.439 19.1822 168.584 19.3342C168.73 19.4861 168.929 19.5742 169.139 19.579L169.14 19.5712ZM184.995 20.9666C185.202 21.0037 185.415 20.9572 185.587 20.8373C185.759 20.7174 185.877 20.534 185.914 20.3274C185.951 20.1207 185.905 19.9079 185.785 19.7355C185.665 19.5632 185.482 19.4455 185.275 19.4085C183.526 18.96 181.752 18.6103 179.964 18.3609L179.938 18.3582C179.73 18.3329 179.52 18.3912 179.356 18.5203C179.191 18.6494 179.084 18.8387 179.059 19.0466C179.033 19.2545 179.092 19.4639 179.221 19.6287C179.35 19.7936 179.539 19.9004 179.747 19.9257C181.476 20.1684 183.19 20.5074 184.882 20.9412L184.995 20.9666Z" fill="#ECA853"/>
<path d="M18.0505 64.2763C18.2394 64.2964 18.4292 64.2477 18.585 64.1391C18.7409 64.0304 18.8524 63.8692 18.8991 63.685C18.9457 63.5008 18.9244 63.3059 18.839 63.1361C18.7536 62.9664 18.6098 62.8332 18.4341 62.761C17.6309 62.4293 16.8264 62.0842 16.0414 61.7306C15.8521 61.6541 15.6405 61.6539 15.4511 61.7302C15.2617 61.8065 15.1091 61.9532 15.0256 62.1396C14.942 62.326 14.9339 62.5375 15.003 62.7297C15.0721 62.922 15.2129 63.0799 15.396 63.1704C16.1946 63.5201 17.0168 63.8724 17.8338 64.2241C17.9033 64.2513 17.9762 64.2689 18.0505 64.2763Z" fill="#ECA853"/>
</g>
<defs>
<clipPath id="clip0_183_138">
<rect width="298.758" height="71.8937" fill="white" transform="matrix(-0.994373 -0.105935 -0.105935 0.994373 304.693 31.6489)"/>
</clipPath>
</defs>
</svg>
