<svg width="211" height="106" viewBox="0 0 211 106" fill="none" xmlns="http://www.w3.org/2000/svg">
<g clip-path="url(#clip0_179_3321)">
<path d="M191.176 28.2025C170.904 33.0694 197.039 52.6226 197.039 52.6226C197.039 52.6226 211.445 23.3362 191.176 28.2025ZM194.885 43.6505C193.529 43.9738 192.109 43.8878 190.802 43.4035C189.495 42.9192 188.361 42.0583 187.544 40.9297C186.726 39.801 186.261 38.4552 186.207 37.0623C186.154 35.6695 186.514 34.292 187.243 33.1042C187.972 31.9163 189.036 30.9713 190.302 30.3886C191.567 29.8059 192.977 29.6116 194.353 29.8303C195.729 30.049 197.01 30.6709 198.033 31.6173C199.056 32.5638 199.776 33.7924 200.101 35.1478C200.318 36.0489 200.354 36.9838 200.209 37.899C200.064 38.8142 199.74 39.6918 199.255 40.4815C198.771 41.2712 198.135 41.9576 197.385 42.5014C196.635 43.0451 195.786 43.4356 194.885 43.6505Z" fill="#917155"/>
<path d="M191.819 30.8806C190.649 31.1614 189.589 31.7831 188.772 32.6669C187.956 33.5508 187.419 34.6571 187.231 35.8459C187.043 37.0348 187.212 38.2528 187.716 39.3459C188.22 40.4389 189.037 41.358 190.063 41.9868C191.089 42.6156 192.278 42.9259 193.481 42.8784C194.683 42.831 195.844 42.4279 196.817 41.7202C197.79 41.0124 198.532 40.0319 198.947 38.9025C199.363 37.7731 199.435 36.5456 199.154 35.3753C198.967 34.5984 198.629 33.8658 198.16 33.2194C197.69 32.5729 197.098 32.0254 196.417 31.608C195.736 31.1906 194.979 30.9115 194.19 30.7867C193.401 30.6619 192.595 30.6938 191.819 30.8806ZM194.431 41.7593C193.449 41.9943 192.42 41.933 191.474 41.5831C190.527 41.2331 189.705 40.6103 189.112 39.7932C188.519 38.9762 188.182 38.0017 188.143 36.9929C188.103 35.9842 188.364 34.9864 188.891 34.1258C189.418 33.2652 190.189 32.5804 191.106 32.1581C192.022 31.7357 193.043 31.5947 194.04 31.7528C195.037 31.911 195.964 32.3612 196.705 33.0466C197.446 33.732 197.968 34.6218 198.203 35.6035C198.519 36.9204 198.298 38.3086 197.591 39.463C196.884 40.6173 195.747 41.4433 194.431 41.7593Z" fill="#917155"/>
<path d="M200.484 56.8396C200.593 57.2957 200.565 57.7741 200.403 58.2142C200.241 58.6543 199.952 59.0364 199.572 59.3121C199.193 59.5878 198.74 59.7448 198.272 59.7631C197.803 59.7815 197.34 59.6605 196.94 59.4153C196.54 59.1701 196.222 58.8119 196.025 58.3858C195.829 57.9598 195.763 57.4851 195.837 57.0217C195.91 56.5584 196.119 56.1272 196.437 55.7828C196.756 55.4383 197.169 55.1961 197.625 55.0866C198.236 54.9398 198.881 55.042 199.417 55.3708C199.953 55.6995 200.337 56.2279 200.484 56.8396Z" fill="#ECA853"/>
<path d="M-61.543 135.383C-61.7469 135.432 -61.9618 135.398 -62.1405 135.288C-62.3192 135.179 -62.4471 135.003 -62.4961 134.799C-62.545 134.595 -62.511 134.38 -62.4015 134.201C-62.292 134.022 -62.116 133.894 -61.9122 133.845C-60.215 133.422 -58.514 132.924 -56.8506 132.359C-56.7519 132.326 -56.6476 132.312 -56.5436 132.319C-56.4396 132.326 -56.338 132.354 -56.2447 132.4C-56.1513 132.446 -56.0679 132.511 -55.9994 132.589C-55.9308 132.668 -55.8783 132.759 -55.845 132.858C-55.8117 132.957 -55.7982 133.061 -55.8052 133.165C-55.8122 133.269 -55.8396 133.371 -55.8858 133.464C-55.9321 133.557 -55.9963 133.641 -56.0747 133.709C-56.1532 133.778 -56.2444 133.83 -56.3431 133.864C-58.0423 134.437 -59.7833 134.961 -61.5251 135.379L-61.543 135.383ZM-66.7663 136.455L-66.8124 136.467C-68.5984 136.757 -70.4023 136.973 -72.1773 137.107C-72.2821 137.116 -72.3878 137.104 -72.488 137.072C-72.5883 137.04 -72.6811 136.989 -72.7611 136.92C-72.8411 136.852 -72.9067 136.768 -72.954 136.674C-73.0012 136.58 -73.0292 136.478 -73.0363 136.372C-73.0525 136.164 -72.9852 135.957 -72.8492 135.798C-72.7132 135.639 -72.5196 135.54 -72.3109 135.523C-70.5787 135.392 -68.8196 135.181 -67.0809 134.897C-66.9783 134.88 -66.8735 134.884 -66.7723 134.907C-66.6711 134.931 -66.5757 134.975 -66.4913 135.036C-66.407 135.097 -66.3355 135.173 -66.281 135.262C-66.2264 135.35 -66.1898 135.449 -66.1733 135.551C-66.1388 135.749 -66.181 135.953 -66.2911 136.121C-66.4012 136.289 -66.5711 136.408 -66.7663 136.455ZM-51.4458 131.964C-51.6454 132.03 -51.8632 132.015 -52.0513 131.92C-52.2393 131.826 -52.3822 131.661 -52.4485 131.461C-52.5147 131.261 -52.499 131.043 -52.4047 130.855C-52.3104 130.667 -52.1452 130.524 -51.9456 130.458C-50.3277 129.761 -48.7327 128.99 -47.2018 128.167C-47.1102 128.115 -47.0092 128.082 -46.9046 128.07C-46.8 128.057 -46.694 128.066 -46.5928 128.095C-46.4916 128.124 -46.3972 128.173 -46.3152 128.239C-46.2333 128.306 -46.1653 128.387 -46.1154 128.48C-46.0655 128.573 -46.0347 128.675 -46.0246 128.78C-46.0146 128.885 -46.0257 128.99 -46.0571 129.091C-46.0886 129.191 -46.1398 129.285 -46.2078 129.365C-46.2758 129.446 -46.3592 129.512 -46.453 129.559C-48.025 130.403 -49.6611 131.194 -51.3079 131.907C-51.3511 131.933 -51.3966 131.955 -51.4439 131.972L-51.4458 131.964ZM-42.0574 126.913C-42.2379 126.955 -42.4275 126.932 -42.5928 126.848C-42.7582 126.765 -42.8889 126.625 -42.9621 126.455C-43.0353 126.285 -43.0463 126.094 -42.9932 125.916C-42.9401 125.739 -42.8263 125.585 -42.6716 125.483C-41.1904 124.51 -39.761 123.467 -38.422 122.387C-38.2589 122.255 -38.0501 122.193 -37.8416 122.215C-37.6331 122.237 -37.4418 122.341 -37.31 122.505C-37.1781 122.668 -37.1164 122.877 -37.1385 123.085C-37.1606 123.294 -37.2646 123.485 -37.4276 123.617C-38.8079 124.729 -40.2791 125.8 -41.8097 126.805C-41.8837 126.859 -41.9671 126.898 -42.0555 126.921L-42.0574 126.913ZM167.007 74.6504L166.995 74.6534C165.25 75.0396 163.473 75.3769 161.707 75.6517C161.5 75.6853 161.288 75.6352 161.117 75.5122C160.947 75.3892 160.832 75.2035 160.798 74.9959C160.765 74.7883 160.815 74.5759 160.938 74.4053C161.06 74.2348 161.246 74.12 161.454 74.0864C163.188 73.8056 164.937 73.4725 166.65 73.0937C166.751 73.0704 166.856 73.0674 166.958 73.0847C167.06 73.1019 167.158 73.1392 167.246 73.1944C167.334 73.2495 167.411 73.3214 167.471 73.4061C167.531 73.4907 167.574 73.5863 167.597 73.6875C167.62 73.7887 167.623 73.8935 167.606 73.9959C167.589 74.0983 167.552 74.1963 167.497 74.2842C167.441 74.3722 167.37 74.4485 167.285 74.5086C167.2 74.5688 167.105 74.6118 167.004 74.635L167.007 74.6504ZM172.182 73.3538C171.979 73.4064 171.764 73.3763 171.583 73.27C171.402 73.1637 171.271 72.9899 171.218 72.7869C171.166 72.5839 171.196 72.3683 171.302 72.1875C171.408 72.0067 171.582 71.8756 171.785 71.8229C173.48 71.3455 175.176 70.8163 176.824 70.2445C177.023 70.1758 177.242 70.1891 177.431 70.2814C177.62 70.3737 177.765 70.5374 177.834 70.7366C177.902 70.9358 177.889 71.1541 177.797 71.3434C177.705 71.5328 177.541 71.6778 177.342 71.7464C175.658 72.3269 173.929 72.8666 172.206 73.3534L172.182 73.3538ZM156.481 76.3482L156.378 76.3728C154.594 76.5573 152.789 76.6923 151.011 76.7669C150.906 76.7731 150.802 76.7585 150.703 76.7238C150.604 76.6891 150.513 76.6352 150.435 76.565C150.357 76.4948 150.294 76.4098 150.249 76.315C150.204 76.2202 150.179 76.1174 150.174 76.0127C150.17 75.908 150.186 75.8033 150.222 75.7049C150.258 75.6065 150.313 75.5163 150.385 75.4395C150.456 75.3627 150.542 75.3008 150.637 75.2576C150.733 75.2143 150.836 75.1904 150.941 75.1874C152.688 75.1093 154.461 74.9791 156.214 74.7994C156.421 74.7637 156.634 74.8118 156.806 74.933C156.977 75.0542 157.094 75.2386 157.13 75.4457C157.165 75.6528 157.117 75.8656 156.996 76.0372C156.875 76.2089 156.691 76.3253 156.484 76.361L156.481 76.3482ZM182.261 69.8689C182.061 69.9335 181.843 69.9159 181.656 69.82C181.469 69.7241 181.328 69.5578 181.263 69.3577C181.198 69.1575 181.216 68.9399 181.312 68.7527C181.408 68.5656 181.574 68.4241 181.774 68.3596C183.408 67.6962 185.026 66.9553 186.593 66.1916C186.687 66.1399 186.79 66.1078 186.897 66.0973C187.003 66.0867 187.111 66.098 187.213 66.1303C187.315 66.1626 187.41 66.2154 187.491 66.2853C187.572 66.3553 187.638 66.4409 187.685 66.5372C187.732 66.6334 187.759 66.7382 187.764 66.8452C187.769 66.9522 187.753 67.0591 187.716 67.1595C187.678 67.2599 187.621 67.3517 187.547 67.4293C187.473 67.5068 187.385 67.5686 187.286 67.6108C185.69 68.3896 184.038 69.1334 182.377 69.8221C182.341 69.8425 182.304 69.8605 182.265 69.876L182.261 69.8689ZM-33.7668 120.212C-33.9343 120.252 -34.1103 120.236 -34.2679 120.167C-34.4256 120.098 -34.5564 119.979 -34.6404 119.828C-34.7243 119.678 -34.7569 119.504 -34.7331 119.333C-34.7092 119.163 -34.6304 119.005 -34.5085 118.883C-33.2806 117.667 -32.0877 116.361 -30.9583 115.006C-30.8242 114.845 -30.6316 114.743 -30.4228 114.724C-30.214 114.705 -30.0061 114.77 -29.8449 114.904C-29.6837 115.038 -29.5824 115.231 -29.5633 115.44C-29.5441 115.649 -29.6087 115.857 -29.7428 116.018C-30.9039 117.411 -32.1323 118.76 -33.3911 120.005C-33.4952 120.111 -33.6263 120.185 -33.7701 120.221L-33.7668 120.212ZM145.834 76.8227C145.769 76.8382 145.703 76.8459 145.636 76.8458C143.838 76.8166 142.028 76.7336 140.26 76.5942C140.157 76.5861 140.056 76.5577 139.963 76.5106C139.871 76.4635 139.788 76.3987 139.721 76.3197C139.653 76.2408 139.602 76.1494 139.57 76.0506C139.538 75.9518 139.525 75.8477 139.533 75.7441C139.541 75.6406 139.57 75.5396 139.617 75.4471C139.664 75.3545 139.729 75.2721 139.807 75.2046C139.886 75.1371 139.978 75.0858 140.076 75.0536C140.175 75.0214 140.279 75.009 140.383 75.0171C142.117 75.1428 143.895 75.2364 145.663 75.2646C145.854 75.2691 146.038 75.343 146.179 75.4725C146.32 75.6021 146.409 75.7785 146.43 75.969C146.451 76.1594 146.402 76.351 146.292 76.508C146.183 76.6651 146.02 76.7769 145.834 76.8227ZM135.202 75.9844C135.105 76.0073 135.004 76.0122 134.905 75.9989C133.119 75.7391 131.336 75.4192 129.601 75.0442C129.5 75.0222 129.404 74.9806 129.318 74.9215C129.233 74.8624 129.16 74.787 129.104 74.6998C129.047 74.6125 129.009 74.515 128.99 74.4128C128.971 74.3106 128.973 74.2057 128.995 74.1042C129.017 74.0027 129.058 73.9064 129.118 73.821C129.177 73.7356 129.252 73.6627 129.339 73.6063C129.426 73.55 129.524 73.5115 129.626 73.4929C129.728 73.4742 129.833 73.4759 129.934 73.4978C131.632 73.8655 133.382 74.1799 135.13 74.4323C135.312 74.4582 135.48 74.5469 135.604 74.6832C135.728 74.8195 135.8 74.9947 135.809 75.1787C135.817 75.3627 135.761 75.5439 135.651 75.691C135.54 75.8381 135.381 75.9419 135.202 75.9844ZM-26.9456 112.04C-27.1014 112.077 -27.265 112.067 -27.4146 112.009C-27.5643 111.952 -27.6929 111.85 -27.7835 111.718C-27.874 111.585 -27.9222 111.428 -27.9216 111.268C-27.9211 111.108 -27.8718 110.951 -27.7803 110.82C-26.8122 109.425 -25.8596 107.919 -24.9443 106.371C-24.8935 106.279 -24.8246 106.197 -24.7417 106.131C-24.6588 106.066 -24.5635 106.017 -24.4616 105.989C-24.3596 105.961 -24.253 105.954 -24.1482 105.967C-24.0433 105.981 -23.9423 106.016 -23.8511 106.069C-23.7598 106.123 -23.6803 106.194 -23.6171 106.279C-23.554 106.364 -23.5085 106.461 -23.4834 106.564C-23.4583 106.667 -23.4541 106.773 -23.471 106.878C-23.4879 106.982 -23.5256 107.082 -23.5818 107.172C-24.5191 108.752 -25.4931 110.292 -26.4826 111.722C-26.593 111.881 -26.7577 111.994 -26.9456 112.04ZM124.78 73.7162C124.646 73.748 124.506 73.7451 124.374 73.7079C122.69 73.2151 120.968 72.6555 119.256 72.0365C119.153 72.0055 119.058 71.9538 118.975 71.8846C118.893 71.8154 118.826 71.7302 118.778 71.6341C118.729 71.538 118.701 71.4331 118.695 71.3258C118.689 71.2185 118.704 71.111 118.741 71.0099C118.777 70.9089 118.834 70.8163 118.908 70.738C118.981 70.6596 119.07 70.5971 119.169 70.5543C119.267 70.5115 119.374 70.4892 119.481 70.4888C119.589 70.4885 119.695 70.51 119.794 70.5522C121.473 71.1575 123.163 71.711 124.818 72.1921C124.984 72.2413 125.13 72.3441 125.233 72.4848C125.335 72.6254 125.388 72.7959 125.384 72.9698C125.38 73.1437 125.319 73.3114 125.209 73.4468C125.1 73.5822 124.949 73.6778 124.78 73.7188L124.78 73.7162ZM-21.5094 102.861C-21.6918 102.904 -21.8836 102.881 -22.0506 102.795C-22.1432 102.748 -22.2256 102.684 -22.2932 102.605C-22.3608 102.526 -22.4122 102.435 -22.4444 102.336C-22.4767 102.237 -22.4892 102.133 -22.4812 102.029C-22.4732 101.926 -22.4449 101.825 -22.3979 101.732C-21.6398 100.241 -20.8885 98.6758 -20.1077 96.9516C-20.0211 96.7604 -19.862 96.6115 -19.6656 96.5377C-19.4692 96.4638 -19.2515 96.4711 -19.0604 96.5578C-18.8692 96.6445 -18.7204 96.8037 -18.6465 97.0002C-18.5727 97.1967 -18.5799 97.4145 -18.6665 97.6057C-19.461 99.3522 -20.2187 100.935 -20.988 102.448C-21.0397 102.551 -21.1132 102.641 -21.2032 102.712C-21.2932 102.783 -21.3977 102.834 -21.5094 102.861ZM114.76 70.1236C114.596 70.1626 114.423 70.148 114.268 70.0818C112.688 69.4123 111.043 68.6661 109.377 67.868C109.188 67.7772 109.043 67.6149 108.973 67.4169C108.903 67.2188 108.915 67.0012 109.006 66.8119C109.097 66.6227 109.259 66.4772 109.457 66.4076C109.655 66.338 109.872 66.3499 110.061 66.4406C111.703 67.2309 113.326 67.9661 114.886 68.6271C115.037 68.6934 115.164 68.8053 115.248 68.9472C115.332 69.0891 115.37 69.2538 115.356 69.4183C115.342 69.5827 115.277 69.7387 115.17 69.8643C115.063 69.9898 114.919 70.0787 114.759 70.1185L114.76 70.1236ZM105.138 65.5247C104.951 65.5716 104.752 65.5479 104.581 65.4581C103.102 64.6828 101.564 63.8487 99.8739 62.9046C99.7786 62.8567 99.6939 62.79 99.6249 62.7085C99.556 62.6271 99.5043 62.5325 99.4729 62.4305C99.4415 62.3285 99.431 62.2212 99.4422 62.115C99.4533 62.0089 99.4859 61.9061 99.5378 61.8129C99.5897 61.7197 99.66 61.6379 99.7444 61.5726C99.8287 61.5073 99.9254 61.4597 100.029 61.4328C100.132 61.4059 100.239 61.4002 100.345 61.416C100.451 61.4318 100.552 61.4687 100.643 61.5247C102.32 62.4611 103.849 63.2893 105.314 64.0568C105.406 64.1051 105.488 64.171 105.555 64.251C105.621 64.3309 105.672 64.4231 105.702 64.5225C105.733 64.6218 105.744 64.7263 105.735 64.8299C105.725 64.9335 105.695 65.0342 105.647 65.1262C105.593 65.2258 105.519 65.3128 105.429 65.3812C105.339 65.4496 105.235 65.4978 105.124 65.5226L105.138 65.5247ZM-17.0861 93.1525C-17.2496 93.1908 -17.4212 93.176 -17.5758 93.1102C-17.7687 93.0287 -17.9214 92.8741 -18.0005 92.6802C-18.0795 92.4862 -18.0785 92.2689 -17.9975 92.0757C-17.2912 90.3911 -16.6054 88.7113 -15.9698 87.1493C-15.9348 87.0478 -15.8794 86.9545 -15.8072 86.8751C-15.7349 86.7957 -15.6472 86.7319 -15.5495 86.6875C-15.4517 86.6432 -15.3459 86.6192 -15.2386 86.6171C-15.1313 86.6149 -15.0247 86.6347 -14.9252 86.6752C-14.8258 86.7156 -14.7356 86.7759 -14.6602 86.8524C-14.5848 86.9289 -14.5258 87.0199 -14.4867 87.1199C-14.4476 87.2199 -14.4293 87.3269 -14.4329 87.4342C-14.4365 87.5415 -14.462 87.647 -14.5076 87.7442C-15.1419 89.3113 -15.8291 90.9968 -16.5418 92.6885C-16.5897 92.8032 -16.6639 92.905 -16.7585 92.9856C-16.853 93.0662 -16.9653 93.1234 -17.0861 93.1525ZM95.7948 60.3468C95.5985 60.3938 95.3917 60.364 95.2167 60.2633C94.0853 59.6134 92.9551 58.9605 91.8259 58.3046L90.5955 57.5918C90.5056 57.5397 90.4268 57.4703 90.3637 57.3878C90.3006 57.3053 90.2543 57.2111 90.2276 57.1107C90.2008 57.0103 90.1941 56.9056 90.2078 56.8025C90.2215 56.6995 90.2553 56.6002 90.3074 56.5103C90.3595 56.4204 90.4287 56.3416 90.5112 56.2785C90.5937 56.2154 90.6878 56.1691 90.7882 56.1424C90.8886 56.1156 90.9932 56.1089 91.0962 56.1227C91.1992 56.1364 91.2984 56.1703 91.3883 56.2224L92.6188 56.9352L96.0038 58.8926C96.1409 58.9715 96.2512 59.0897 96.3205 59.232C96.3898 59.3743 96.4148 59.5341 96.3922 59.6907C96.3697 59.8473 96.3008 59.9936 96.1942 60.1105C96.0877 60.2275 95.9486 60.3098 95.7948 60.3468ZM-13.0305 83.267C-13.1915 83.3064 -13.361 83.293 -13.5138 83.2285C-13.7072 83.1489 -13.8612 82.9959 -13.942 82.8029C-14.0229 82.61 -14.024 82.3929 -13.9452 82.1991C-13.5969 81.3476 -13.2449 80.5005 -12.8891 79.658C-12.5435 78.8405 -12.1948 78.0358 -11.8516 77.265C-11.8132 77.1649 -11.7549 77.0737 -11.6802 76.9969C-11.6054 76.92 -11.5159 76.8592 -11.4169 76.8181C-11.3179 76.777 -11.2116 76.7565 -11.1045 76.7578C-10.9973 76.759 -10.8915 76.7821 -10.7936 76.8256C-10.6956 76.869 -10.6075 76.9319 -10.5345 77.0105C-10.4616 77.0891 -10.4054 77.1817 -10.3694 77.2827C-10.3334 77.3837 -10.3183 77.4909 -10.325 77.5979C-10.3317 77.7049 -10.36 77.8094 -10.4084 77.9051C-10.7458 78.6664 -11.0905 79.4647 -11.4328 80.2733C-11.7751 81.0819 -12.1346 81.9542 -12.4843 82.7998C-12.5328 82.9174 -12.6089 83.0215 -12.7062 83.1034C-12.8035 83.1853 -12.9191 83.2424 -13.0433 83.2701L-13.0305 83.267ZM86.5618 55.0203C86.3705 55.0628 86.1701 55.0327 85.9997 54.9357C84.302 53.9691 82.7801 53.1257 81.3502 52.3495C81.253 52.3037 81.1662 52.2385 81.0951 52.158C81.0239 52.0774 80.9699 51.9832 80.9364 51.8811C80.9028 51.779 80.8904 51.6711 80.9 51.564C80.9095 51.457 80.9408 51.353 80.9919 51.2585C81.0429 51.1639 81.1127 51.0808 81.197 51.0141C81.2813 50.9475 81.3783 50.8987 81.482 50.8709C81.5858 50.843 81.6941 50.8366 81.8005 50.852C81.9068 50.8674 82.0089 50.9044 82.1004 50.9606C83.5392 51.74 85.0706 52.5893 86.7875 53.5567C86.9253 53.6342 87.0367 53.7511 87.1073 53.8925C87.178 54.0338 87.2047 54.1931 87.184 54.3498C87.1633 54.5065 87.0961 54.6533 86.9912 54.7714C86.8862 54.8895 86.7483 54.9734 86.5951 55.0123L86.5618 55.0203ZM-8.69375 73.5254C-8.8736 73.5701 -9.06354 73.5483 -9.22865 73.4641C-9.41603 73.3709 -9.55885 73.2072 -9.62576 73.0088C-9.69268 72.8105 -9.67825 72.5937 -9.58562 72.406C-8.76526 70.7563 -7.92624 69.1617 -7.06056 67.6555C-6.95562 67.476 -6.78418 67.3451 -6.5834 67.2912C-6.38263 67.2373 -6.16868 67.2647 -5.98791 67.3674C-5.80716 67.4702 -5.67414 67.6401 -5.6177 67.8403C-5.56125 68.0405 -5.58591 68.2548 -5.68635 68.4369C-6.52621 69.9151 -7.36247 71.4874 -8.17289 73.0995C-8.22303 73.2045 -8.29572 73.297 -8.38576 73.3707C-8.47579 73.4443 -8.58095 73.4971 -8.69375 73.5254ZM77.1572 49.9492C76.9753 49.993 76.7837 49.9708 76.6166 49.8866C76.3787 49.7648 76.1389 49.6462 75.8992 49.5167C74.5578 48.8494 73.1874 48.2081 71.8263 47.6052C71.6438 47.515 71.5031 47.3577 71.4336 47.1663C71.3641 46.9749 71.3711 46.7641 71.4531 46.5777C71.5351 46.3913 71.6859 46.2439 71.8739 46.166C72.062 46.0881 72.2729 46.0858 72.4626 46.1596C73.8474 46.7703 75.2394 47.4227 76.5992 48.0991L77.3268 48.4665C77.4715 48.5395 77.5902 48.6551 77.667 48.7977C77.7438 48.9404 77.775 49.1032 77.7563 49.2641C77.7376 49.425 77.6699 49.5763 77.5624 49.6975C77.4549 49.8186 77.3129 49.9038 77.1553 49.9415L77.1572 49.9492ZM-3.41326 64.2619C-3.51978 64.2858 -3.63008 64.2873 -3.73723 64.2663C-3.84436 64.2454 -3.94601 64.2025 -4.03577 64.1403C-4.21076 64.0249 -4.33277 63.8447 -4.37496 63.6393C-4.41716 63.4339 -4.37608 63.2202 -4.26077 63.0451C-3.25236 61.5129 -2.19844 60.0348 -1.12628 58.6552C-0.995454 58.4969 -0.808179 58.3958 -0.604086 58.3732C-0.4 58.3507 -0.195131 58.4085 -0.032861 58.5344C0.129402 58.6603 0.236329 58.8444 0.26528 59.0478C0.29423 59.2512 0.242932 59.4578 0.122243 59.624C-0.925244 60.9596 -1.95406 62.4182 -2.94106 63.9155C-3.04829 64.0872 -3.21731 64.2112 -3.41326 64.2619ZM67.3877 45.6379C67.2341 45.6743 67.073 45.6639 66.9253 45.6079C65.2628 44.9798 63.5814 44.3969 61.9223 43.8737C61.8205 43.8449 61.7256 43.7959 61.6431 43.7297C61.5605 43.6635 61.4921 43.5813 61.4419 43.4882C61.3916 43.3951 61.3606 43.2928 61.3506 43.1874C61.3406 43.0821 61.3519 42.9758 61.3837 42.8749C61.4155 42.774 61.4673 42.6805 61.5359 42.6C61.6045 42.5194 61.6885 42.4535 61.7831 42.4061C61.8777 42.3587 61.9808 42.3307 62.0863 42.3239C62.1919 42.3171 62.2977 42.3315 62.3976 42.3664C64.0828 42.8969 65.7967 43.491 67.4828 44.127C67.6409 44.1869 67.7756 44.2959 67.8672 44.438C67.9588 44.5802 68.0024 44.7479 67.9917 44.9166C67.981 45.0854 67.9165 45.2462 67.8077 45.3756C67.6989 45.5049 67.5515 45.596 67.3871 45.6353L67.3877 45.6379ZM3.13921 55.8504C2.97411 55.8902 2.8006 55.8757 2.64437 55.809C2.48815 55.7424 2.35752 55.6272 2.27184 55.4805C2.18616 55.3338 2.14999 55.1634 2.16867 54.9946C2.18737 54.8257 2.25993 54.6674 2.3756 54.543C3.61992 53.2035 4.9243 51.9336 6.24816 50.7674C6.40675 50.6397 6.60847 50.5782 6.8113 50.5957C7.01412 50.6132 7.20241 50.7083 7.33691 50.8612C7.4714 51.0141 7.54175 51.213 7.5333 51.4165C7.52483 51.6199 7.43821 51.8123 7.29148 51.9534C6.00572 53.0752 4.7412 54.3193 3.53366 55.6202C3.42769 55.7341 3.29048 55.8142 3.13921 55.8504ZM57.2111 42.4407C57.0879 42.4699 56.9595 42.4692 56.8367 42.4384C55.1078 42.0078 53.3732 41.6437 51.672 41.3284C51.5667 41.3136 51.4655 41.2776 51.3744 41.2227C51.2834 41.1678 51.2043 41.0951 51.142 41.0089C51.0797 40.9227 51.0354 40.8249 51.0117 40.7212C50.9881 40.6175 50.9856 40.5101 51.0044 40.4054C51.0232 40.3008 51.0629 40.201 51.1212 40.112C51.1795 40.0231 51.2551 39.9468 51.3435 39.8878C51.432 39.8288 51.5314 39.7882 51.6359 39.7686C51.7403 39.7489 51.8477 39.7505 51.9515 39.7733C53.6841 40.0837 55.4582 40.4655 57.2189 40.9047C57.3906 40.9477 57.5429 41.047 57.6514 41.1868C57.7599 41.3267 57.8184 41.4989 57.8175 41.6759C57.8166 41.8529 57.7564 42.0245 57.6464 42.1631C57.5365 42.3018 57.3832 42.3995 57.2111 42.4407ZM46.7072 40.5661C46.6199 40.5863 46.5299 40.5924 46.4406 40.5841C44.6699 40.3966 42.8998 40.2795 41.1801 40.237C41.0733 40.2391 40.9672 40.2194 40.8682 40.1793C40.7692 40.1392 40.6794 40.0795 40.6041 40.0037C40.5289 39.9279 40.4697 39.8376 40.4303 39.7383C40.3909 39.639 40.372 39.5327 40.3747 39.4259C40.3775 39.3191 40.4019 39.214 40.4463 39.1169C40.4909 39.0198 40.5546 38.9327 40.6336 38.8609C40.7127 38.7892 40.8055 38.7342 40.9065 38.6993C41.0074 38.6644 41.1143 38.6503 41.2209 38.6579C42.9808 38.6989 44.7822 38.822 46.6047 39.0106C46.7904 39.0297 46.9633 39.114 47.0928 39.2484C47.2223 39.3829 47.3001 39.5589 47.3124 39.7452C47.3247 39.9315 47.2707 40.1161 47.1599 40.2664C47.0491 40.4166 46.8888 40.5228 46.7072 40.5661ZM11.1349 48.8352C10.9561 48.878 10.7679 48.857 10.6029 48.776C10.4378 48.6949 10.3061 48.5587 10.2305 48.391C10.155 48.2233 10.1402 48.0344 10.1889 47.857C10.2375 47.6796 10.3464 47.5248 10.4969 47.4191C11.9767 46.3789 13.5152 45.4249 15.1048 44.5619C15.2891 44.4619 15.5057 44.4393 15.7067 44.4991C15.9078 44.5588 16.0769 44.696 16.1769 44.8805C16.2768 45.0649 16.2995 45.2816 16.2398 45.4827C16.1801 45.6838 16.043 45.853 15.8586 45.953C14.3222 46.7874 12.8349 47.7092 11.4038 48.7138C11.324 48.7676 11.2351 48.8064 11.1414 48.8283L11.1349 48.8352ZM36.056 40.3234C36.0112 40.3337 35.9656 40.3401 35.9197 40.3426C34.1539 40.4575 32.3924 40.6473 30.6978 40.9349C30.4904 40.9689 30.2779 40.919 30.1072 40.7964C29.9365 40.6737 29.8215 40.4882 29.7875 40.2807C29.7535 40.0732 29.8033 39.8607 29.9259 39.69C30.0485 39.5192 30.2339 39.4042 30.4413 39.3702C32.1909 39.0857 33.9998 38.8791 35.8168 38.7627C36.0247 38.7308 36.2368 38.7828 36.4064 38.9072C36.576 39.0317 36.6892 39.2185 36.7212 39.4265C36.7531 39.6345 36.7012 39.8466 36.5768 40.0163C36.4524 40.1859 36.2658 40.2992 36.0579 40.3311L36.056 40.3234ZM20.4904 43.7595C20.2901 43.8231 20.0727 43.8044 19.8861 43.7076C19.6995 43.6109 19.559 43.4439 19.4955 43.2435C19.4319 43.0431 19.4505 42.8257 19.5472 42.6391C19.6439 42.4524 19.8108 42.3119 20.0111 42.2483C21.6904 41.5768 23.4062 41.0002 25.1503 40.5212L25.1759 40.5151C25.3789 40.4631 25.5944 40.4939 25.7747 40.6008C25.9551 40.7077 26.0857 40.8819 26.1377 41.0851C26.1897 41.2883 26.1589 41.5038 26.0521 41.6842C25.9452 41.8646 25.7712 41.9952 25.5681 42.0472C23.8822 42.5118 22.2236 43.0701 20.6 43.7197L20.4904 43.7595Z" fill="#ECA853"/>
<path d="M191.883 65.1818C191.698 65.2262 191.503 65.2024 191.334 65.1147C191.166 65.027 191.034 64.8813 190.964 64.7044C190.894 64.5274 190.89 64.3311 190.953 64.1515C191.015 63.9719 191.141 63.821 191.306 63.7266C192.061 63.2933 192.815 62.8466 193.549 62.394C193.727 62.2935 193.937 62.2659 194.135 62.3172C194.333 62.3684 194.504 62.4944 194.611 62.6687C194.718 62.843 194.753 63.0521 194.709 63.2519C194.666 63.4517 194.546 63.6268 194.376 63.7403C193.628 64.1909 192.857 64.6471 192.091 65.102C192.026 65.138 191.956 65.1649 191.883 65.1818Z" fill="#ECA853"/>
</g>
<defs>
<clipPath id="clip0_179_3321">
<rect width="299.2" height="72" fill="white" transform="translate(-97 69.8469) rotate(-13.5)"/>
</clipPath>
</defs>
</svg>
